<?xml version="1.0" encoding="UTF-8" standalone="no"?>
<!-- Created with Inkscape (http://www.inkscape.org/) -->

<svg
   xmlns:dc="http://purl.org/dc/elements/1.1/"
   xmlns:cc="http://creativecommons.org/ns#"
   xmlns:rdf="http://www.w3.org/1999/02/22-rdf-syntax-ns#"
   xmlns:svg="http://www.w3.org/2000/svg"
   xmlns="http://www.w3.org/2000/svg"
   xmlns:sodipodi="http://sodipodi.sourceforge.net/DTD/sodipodi-0.dtd"
   xmlns:inkscape="http://www.inkscape.org/namespaces/inkscape"
   width="800"
   height="1000"
   viewBox="0 0 800.00001 1000"
   id="svg4150"
   version="1.1"
   inkscape:version="0.91 r13725"
   sodipodi:docname="hand.svg">
  <defs
     id="defs4152" />
  <sodipodi:namedview
     id="base"
     pagecolor="#ffffff"
     bordercolor="#666666"
     borderopacity="1.0"
     inkscape:pageopacity="0.0"
     inkscape:pageshadow="2"
     inkscape:zoom="0.7"
     inkscape:cx="490.25699"
     inkscape:cy="768.92015"
     inkscape:document-units="px"
     inkscape:current-layer="layer1"
     showgrid="false"
     units="px"
     inkscape:window-width="2880"
     inkscape:window-height="1752"
     inkscape:window-x="0"
     inkscape:window-y="48"
     inkscape:window-maximized="1" />
  <metadata
     id="metadata4155">
    <rdf:RDF>
      <cc:Work
         rdf:about="">
        <dc:format>image/svg+xml</dc:format>
        <dc:type
           rdf:resource="http://purl.org/dc/dcmitype/StillImage" />
        <dc:title />
      </cc:Work>
    </rdf:RDF>
  </metadata>
  <g
     inkscape:label="Layer 1"
     inkscape:groupmode="layer"
     id="layer1"
     transform="translate(0,-52.362161)">
    <circle
       style="opacity:1;fill:#3eb34f;fill-opacity:1;fill-rule:evenodd;stroke:none;stroke-width:15;stroke-linecap:round;stroke-linejoin:round;stroke-miterlimit:4;stroke-dasharray:none;stroke-dashoffset:0;stroke-opacity:1"
       id="path4142-1-6-6"
       cx="720.54407"
       cy="277.40912"
       r="50" />
    <circle
       style="opacity:1;fill:#3eb34f;fill-opacity:1;fill-rule:evenodd;stroke:none;stroke-width:15;stroke-linecap:round;stroke-linejoin:round;stroke-miterlimit:4;stroke-dasharray:none;stroke-dashoffset:0;stroke-opacity:1"
       id="path4142-1-6"
       cx="593.37799"
       cy="157.17737"
       r="50" />
    <circle
       style="opacity:1;fill:#3eb34f;fill-opacity:1;fill-rule:evenodd;stroke:none;stroke-width:15;stroke-linecap:round;stroke-linejoin:round;stroke-miterlimit:4;stroke-dasharray:none;stroke-dashoffset:0;stroke-opacity:1"
       id="path4142-1"
       cx="425.0806"
       cy="109.39419"
       r="50" />
    <circle
       style="opacity:1;fill:#3eb34f;fill-opacity:1;fill-rule:evenodd;stroke:none;stroke-width:15;stroke-linecap:round;stroke-linejoin:round;stroke-miterlimit:4;stroke-dasharray:none;stroke-dashoffset:0;stroke-opacity:1"
       id="path4142"
       cx="227.96959"
       cy="162.98631"
       r="50" />
    <path
       style="fill:none;fill-rule:evenodd;stroke:#f9f9f9;stroke-width:13.41908741;stroke-linecap:butt;stroke-linejoin:miter;stroke-miterlimit:4;stroke-dasharray:none;stroke-opacity:1"
       d="m 365.01377,948.34718 c -7.52148,-22.31641 -4.46839,-15.70445 -13.42526,-34.98696 -8.95687,-19.2825 -16.8947,-31.54398 -41.50223,-54.36225 -24.60753,-22.81827 -69.71309,-49.28543 -91.98058,-76.83862 -22.26749,-27.55319 -44.7178,-64.74993 -61.45081,-87.65778 -16.733,-22.90785 -37.54832,-38.33933 -54.2213,-53.31761 -16.67298,-14.97828 -44.470132,-35.62265 -44.470132,-35.62265 0,0 1.58535,-20.34894 10.129974,-27.63554 8.544628,-7.28659 23.423158,-9.32722 37.954908,-9.03687 14.53175,0.29034 32.21249,5.47236 46.3982,13.02595 14.18571,7.55358 27.50427,21.65314 36.74113,31.25477 9.23686,9.60163 11.26884,17.3564 19.59186,24.92511 8.32302,7.5687 20.80215,17.03729 30.111,19.35562 9.30885,2.31834 15.00882,2.49037 21.68852,-1.80738 6.6797,-4.29775 9.48124,-17.02298 14.00718,-25.30326 4.52593,-8.28028 9.68478,-11.74406 13.10348,-24.3996 3.4187,-12.65553 3.78117,-27.47144 1.80737,-47.89547 -1.97381,-20.42404 -7.43912,-29.26937 -17.17008,-73.19876 -9.73096,-43.9294 -33.27682,-153.29921 -39.76229,-190.67825 -6.48547,-37.37904 -7.01207,-33.07993 -4.06659,-42.24743 2.94548,-9.1675 8.29647,-13.97442 16.26639,-17.396 7.96992,-3.42158 18.73361,-1.23829 26.88473,2.93699 8.15112,4.17528 13.55869,15.80828 17.17008,25.07736 3.61139,9.26908 3.09557,7.79235 12.4257,35.24383 9.33013,27.45148 27.37645,103.98893 37.95492,134.64957 10.57847,30.66064 15.6049,44.22565 20.78483,54.92025 5.17993,10.6946 4.90581,12.17656 8.13319,14.45901 3.22738,2.28245 4.74806,1.686 7.02198,1.22487 9.95409,-2.54092 7.34199,-27.94145 7.43704,-30.1429 0.85693,-20.36951 -0.25038,-62.56629 1.80738,-100.10466 2.05777,-37.53837 9.0839,-98.64833 11.74794,-129.22744 2.66405,-30.57911 4.96108,-37.47546 8.55905,-48.16038 3.59797,-10.68492 8.98965,-18.28939 29.66329,-18.89824 20.67363,-0.60885 25.1012,20.80436 26.84323,39.04428 1.74203,18.23992 0.0728,46.60456 -0.21927,74.36713 -0.29207,27.76257 -1.73737,65.07525 -2.4918,91.91153 -0.75443,26.83629 0.29781,57.935 0.90369,73.8977 0.60588,15.9627 -0.52428,34.8088 2.46151,45.21446 11.59607,32.44711 27.01349,-42.19412 27.3602,-43.40708 7.05931,-24.93896 16.72061,-72.24032 24.39959,-103.71942 7.67898,-31.4791 15.94575,-76.15226 21.68852,-89.46514 5.74277,-13.31288 10.53997,-24.81973 20.46544,-30.27482 9.92547,-5.45509 21.02945,1.67163 26.95222,6.32582 5.92277,4.65419 9.54343,10.99974 9.1161,24.32037 -0.42733,13.32063 -3.55446,34.26355 -5.92721,52.94624 -2.37275,18.68269 -4.71352,34.63442 -9.03688,64.16187 -4.32336,29.52745 -15.25973,79.22086 -17.17008,107.53891 -1.91036,28.31805 -6.27847,34.61849 -1.80738,43.37705 4.4711,8.75857 7.4471,11.61242 12.99455,8.60972 7.52372,-4.07245 18.94993,-19.32573 26.76773,-38.88329 7.8178,-19.55756 12.47158,-28.09596 23.05862,-49.49983 10.58704,-21.40387 30.39104,-74.46661 46.08338,-86.31861 15.69234,-11.852 30.33059,1.79983 34.38294,8.87968 4.05235,7.07985 2.31392,11.05468 1.60616,19.10742 -0.70776,8.05274 -2.13323,15.0374 -7.12304,26.84575 -4.98981,11.80835 -16.26664,44.68218 -27.35726,66.94254 -11.09062,22.26035 -16.14939,40.72197 -27.95833,87.95611 -11.80893,47.23413 -19.10817,82.90709 -27.08317,125.16278 -7.975,42.25569 -27.52648,86.52847 -32.61588,111.08681 -5.08941,24.55833 -5.84969,17.83397 -7.01024,34.02066 -1.16055,16.18668 -0.11454,1.87649 6.10654,35.81765 6.22108,33.94116 47.89647,163.18395 47.89647,163.18395 l -242.35295,0 c 0,0 -12.75279,-74.98912 -20.27427,-97.30552 z"
       id="path4729"
       inkscape:connector-curvature="0"
       sodipodi:nodetypes="zzzzzzczzzzzzzzzzzzzzzzzzzzcczzzzzzzzcczzzzzzzzzszzzzzzzzzzzzccz" />
    <text
       xml:space="preserve"
       style="font-style:normal;font-variant:normal;font-weight:normal;font-stretch:normal;font-size:100px;line-height:125%;font-family:Ubuntu;-inkscape-font-specification:Ubuntu;letter-spacing:0px;word-spacing:0px;fill:#000000;fill-opacity:1;stroke:none;stroke-width:1px;stroke-linecap:butt;stroke-linejoin:miter;stroke-opacity:1"
       x="212.81334"
       y="184.64256"
       id="text4779"
       sodipodi:linespacing="125%"><tspan
         sodipodi:role="line"
         id="tspan4781"
         x="212.81334"
         y="184.64256"
         style="font-style:normal;font-variant:normal;font-weight:500;font-stretch:normal;font-size:62.5px;font-family:Ubuntu;-inkscape-font-specification:'Ubuntu Medium';fill:#ffffff;fill-opacity:1">1</tspan></text>
    <text
       xml:space="preserve"
       style="font-style:normal;font-variant:normal;font-weight:normal;font-stretch:normal;font-size:100px;line-height:125%;font-family:Ubuntu;-inkscape-font-specification:Ubuntu;letter-spacing:0px;word-spacing:0px;fill:#000000;fill-opacity:1;stroke:none;stroke-width:1px;stroke-linecap:butt;stroke-linejoin:miter;stroke-opacity:1"
       x="407.9556"
       y="131.55045"
       id="text4779-2"
       sodipodi:linespacing="125%"><tspan
         sodipodi:role="line"
         id="tspan4781-9"
         x="407.9556"
         y="131.55045"
         style="font-style:normal;font-variant:normal;font-weight:500;font-stretch:normal;font-size:62.5px;font-family:Ubuntu;-inkscape-font-specification:'Ubuntu Medium';fill:#ffffff;fill-opacity:1">2</tspan></text>
    <text
       xml:space="preserve"
       style="font-style:normal;font-variant:normal;font-weight:normal;font-stretch:normal;font-size:100px;line-height:125%;font-family:Ubuntu;-inkscape-font-specification:Ubuntu;letter-spacing:0px;word-spacing:0px;fill:#000000;fill-opacity:1;stroke:none;stroke-width:1px;stroke-linecap:butt;stroke-linejoin:miter;stroke-opacity:1"
       x="576.09674"
       y="178.86487"
       id="text4779-7"
       sodipodi:linespacing="125%"><tspan
         sodipodi:role="line"
         id="tspan4781-2"
         x="576.09674"
         y="178.86487"
         style="font-style:normal;font-variant:normal;font-weight:500;font-stretch:normal;font-size:62.5px;font-family:Ubuntu;-inkscape-font-specification:'Ubuntu Medium';fill:#ffffff;fill-opacity:1">3</tspan></text>
    <text
       xml:space="preserve"
       style="font-style:normal;font-variant:normal;font-weight:normal;font-stretch:normal;font-size:100px;line-height:125%;font-family:Ubuntu;-inkscape-font-specification:Ubuntu;letter-spacing:0px;word-spacing:0px;fill:#000000;fill-opacity:1;stroke:none;stroke-width:1px;stroke-linecap:butt;stroke-linejoin:miter;stroke-opacity:1"
       x="702.85657"
       y="299.06537"
       id="text4779-7-2"
       sodipodi:linespacing="125%"
       inkscape:transform-center-x="53.538086"
       inkscape:transform-center-y="-15.152288"><tspan
         sodipodi:role="line"
         id="tspan4781-2-0"
         x="702.85657"
         y="299.06537"
         style="font-style:normal;font-variant:normal;font-weight:500;font-stretch:normal;font-size:62.5px;font-family:Ubuntu;-inkscape-font-specification:'Ubuntu Medium';fill:#ffffff;fill-opacity:1">4</tspan></text>
  </g>
</svg>
