<?xml version="1.0" encoding="UTF-8" standalone="no"?>
<!-- Created with Inkscape (http://www.inkscape.org/) -->

<svg
   xmlns:dc="http://purl.org/dc/elements/1.1/"
   xmlns:cc="http://creativecommons.org/ns#"
   xmlns:rdf="http://www.w3.org/1999/02/22-rdf-syntax-ns#"
   xmlns:svg="http://www.w3.org/2000/svg"
   xmlns="http://www.w3.org/2000/svg"
   xmlns:sodipodi="http://sodipodi.sourceforge.net/DTD/sodipodi-0.dtd"
   xmlns:inkscape="http://www.inkscape.org/namespaces/inkscape"
   id="svg4874"
   height="96"
   viewBox="0 0 96 96.000001"
   width="96"
   version="1.1"
   inkscape:version="0.91 r13725"
   sodipodi:docname="audio-speakers-symbolic.svg">
  <defs
     id="defs12" />
  <sodipodi:namedview
     pagecolor="#ffffff"
     bordercolor="#666666"
     borderopacity="1"
     objecttolerance="10"
     gridtolerance="10"
     guidetolerance="10"
     inkscape:pageopacity="0"
     inkscape:pageshadow="2"
     inkscape:window-width="2880"
     inkscape:window-height="1752"
     id="namedview10"
     showgrid="false"
     inkscape:zoom="9.8333333"
     inkscape:cx="92.526982"
     inkscape:cy="20.061432"
     inkscape:window-x="0"
     inkscape:window-y="48"
     inkscape:window-maximized="1"
     inkscape:current-layer="svg4874" />
  <metadata
     id="metadata4879">
    <rdf:RDF>
      <cc:Work
         rdf:about="">
        <dc:format>image/svg+xml</dc:format>
        <dc:type
           rdf:resource="http://purl.org/dc/dcmitype/StillImage" />
        <dc:title />
      </cc:Work>
    </rdf:RDF>
  </metadata>
  <g
     id="layer1"
     transform="translate(67.857 -78.505)">
    <rect
       id="rect4782"
       style="color:#000000;fill:none"
       transform="rotate(90)"
       height="96"
       width="96"
       y="-28.143"
       x="78.505" />
    <path
       id="path4180"
       style="fill:#f9f9f9"
       d="m48 8l-19.777 19.777h-15.778s-4.445 7.581-4.445 20.231 4.445 20.215 4.445 20.215h15.778l19.777 19.777v-80zm-4 9.656v60.686l-14.121-14.121h-14.803c-1.02-2.105-3.076-6.96-3.076-16.213 0-9.256 2.058-14.122 3.078-16.231h14.801l14.121-14.121z"
       transform="translate(-67.857 78.505)" />
    <path
       id="path4158"
       style="color-rendering:auto;text-decoration-color:#000000;color:#000000;font-variant-numeric:normal;shape-rendering:auto;solid-color:#000000;text-decoration-line:none;fill:#f9f9f9;font-variant-position:normal;mix-blend-mode:normal;block-progression:tb;font-feature-settings:normal;shape-padding:0;font-variant-alternates:normal;text-indent:0;font-variant-caps:normal;image-rendering:auto;white-space:normal;text-decoration-style:solid;font-variant-ligatures:none;isolation:auto;text-transform:none"
       d="m-2.75 105.04-3.5352 3.5352c4.7573 4.7573 7.4277 11.208 7.4277 17.936 2e-7 6.7278-2.6704 13.176-7.4277 17.934l3.5352 3.52c5.6936-5.69 8.8926-13.41 8.8926-21.46 0-8.06-3.199-15.78-8.8926-21.47z" />
    <path
       id="circle4160"
       style="color-rendering:auto;text-decoration-color:#000000;color:#000000;font-variant-numeric:normal;shape-rendering:auto;solid-color:#000000;text-decoration-line:none;fill:#f9f9f9;font-variant-position:normal;mix-blend-mode:normal;block-progression:tb;font-feature-settings:normal;shape-padding:0;font-variant-alternates:normal;text-indent:0;font-variant-caps:normal;image-rendering:auto;white-space:normal;text-decoration-style:solid;font-variant-ligatures:none;isolation:auto;text-transform:none"
       d="m7.1328 95.152-3.5351 3.536c7.3784 7.3784 11.521 17.384 11.521 27.818 0 10.435-4.1431 20.438-11.521 27.816l3.5352 3.5371c8.3151-8.32 12.986-19.6 12.986-31.35 0-11.76-4.671-23.04-12.986-31.358z" />
    <rect
       id="rect4165"
       style="color:#000000;fill:none"
       height="96"
       width="96"
       y="78.505"
       x="-67.857" />
  </g>
</svg>
